<svg xmlns="http://www.w3.org/2000/svg" xmlns:xlink="http://www.w3.org/1999/xlink" width="146" zoomAndPan="magnify" viewBox="0 0 109.5 34.499999" height="46" preserveAspectRatio="xMidYMid meet" version="1.0"><defs><g/></defs><g fill="#d32f23" fill-opacity="0.4196"><g transform="translate(3.822242, 25.804473)"><g><path d="M 8.515625 -14.265625 C 8.597656 -14.410156 8.71875 -14.484375 8.875 -14.484375 L 12.03125 -14.484375 C 12.113281 -14.484375 12.175781 -14.457031 12.21875 -14.40625 C 12.269531 -14.351562 12.289062 -14.28125 12.28125 -14.1875 L 10.578125 -0.3125 C 10.566406 -0.21875 10.53125 -0.140625 10.46875 -0.078125 C 10.40625 -0.0234375 10.332031 0 10.25 0 L 7.0625 0 C 6.976562 0 6.910156 -0.0234375 6.859375 -0.078125 C 6.816406 -0.140625 6.800781 -0.21875 6.8125 -0.3125 L 7.84375 -8.78125 C 7.851562 -8.832031 7.84375 -8.859375 7.8125 -8.859375 C 7.78125 -8.867188 7.75 -8.851562 7.71875 -8.8125 L 6.3125 -6.796875 L 6.0625 -6.421875 L 6.046875 -6.421875 L 4.984375 -8.8125 C 4.972656 -8.851562 4.953125 -8.867188 4.921875 -8.859375 C 4.898438 -8.859375 4.878906 -8.832031 4.859375 -8.78125 L 3.828125 -0.3125 C 3.816406 -0.21875 3.78125 -0.140625 3.71875 -0.078125 C 3.664062 -0.0234375 3.59375 0 3.5 0 L 0.328125 0 C 0.234375 0 0.160156 -0.0234375 0.109375 -0.078125 C 0.0664062 -0.140625 0.0507812 -0.21875 0.0625 -0.3125 L 1.765625 -14.1875 C 1.773438 -14.28125 1.8125 -14.351562 1.875 -14.40625 C 1.9375 -14.457031 2.007812 -14.484375 2.09375 -14.484375 L 5.234375 -14.484375 C 5.398438 -14.484375 5.507812 -14.410156 5.5625 -14.265625 L 6.671875 -11.578125 C 6.691406 -11.515625 6.734375 -11.515625 6.796875 -11.578125 Z M 8.515625 -14.265625 "/></g></g></g><g fill="#d32f23" fill-opacity="0.4196"><g transform="translate(15.18112, 25.804473)"><g><path d="M 3.109375 -0.046875 C 3.003906 -0.046875 2.925781 -0.0703125 2.875 -0.125 C 2.832031 -0.175781 2.820312 -0.253906 2.84375 -0.359375 L 3.421875 -5.140625 C 3.429688 -5.160156 3.429688 -5.203125 3.421875 -5.265625 L 1.703125 -14.140625 L 1.703125 -14.21875 C 1.703125 -14.394531 1.796875 -14.484375 1.984375 -14.484375 L 5.328125 -14.484375 C 5.515625 -14.484375 5.613281 -14.394531 5.625 -14.21875 L 5.875 -10.0625 C 5.875 -10.019531 5.890625 -10 5.921875 -10 C 5.960938 -10 5.988281 -10.019531 6 -10.0625 L 7.265625 -14.21875 C 7.316406 -14.394531 7.441406 -14.484375 7.640625 -14.484375 L 10.96875 -14.484375 C 11.082031 -14.484375 11.15625 -14.453125 11.1875 -14.390625 C 11.21875 -14.335938 11.210938 -14.253906 11.171875 -14.140625 L 7.21875 -5.265625 L 7.203125 -5.140625 L 6.609375 -0.359375 C 6.585938 -0.253906 6.550781 -0.175781 6.5 -0.125 C 6.445312 -0.0703125 6.367188 -0.046875 6.265625 -0.046875 Z M 3.109375 -0.046875 "/></g></g></g><g fill="#d32f23" fill-opacity="0.4196"><g transform="translate(25.381359, 25.804473)"><g/></g></g><g fill="#d32f23" fill-opacity="0.4196"><g transform="translate(29.39525, 25.804473)"><g><path d="M 0.78125 -4.25 C 0.6875 -4.25 0.613281 -4.273438 0.5625 -4.328125 C 0.519531 -4.378906 0.503906 -4.453125 0.515625 -4.546875 L 0.84375 -7.25 C 0.863281 -7.34375 0.90625 -7.414062 0.96875 -7.46875 C 1.03125 -7.53125 1.101562 -7.5625 1.1875 -7.5625 L 6.75 -7.5625 C 6.84375 -7.5625 6.910156 -7.53125 6.953125 -7.46875 C 7.003906 -7.414062 7.023438 -7.34375 7.015625 -7.25 L 6.6875 -4.546875 C 6.675781 -4.453125 6.640625 -4.378906 6.578125 -4.328125 C 6.515625 -4.273438 6.429688 -4.25 6.328125 -4.25 Z M 0.78125 -4.25 "/></g></g></g><g fill="#d32f23" fill-opacity="0.4196"><g transform="translate(36.285061, 25.804473)"><g/></g></g><g fill="#d32f23" fill-opacity="0.4196"><g transform="translate(40.298952, 25.804473)"><g><path d="M 9.5625 -11.46875 C 9.550781 -11.375 9.515625 -11.296875 9.453125 -11.234375 C 9.390625 -11.179688 9.3125 -11.15625 9.21875 -11.15625 L 5.359375 -11.15625 C 5.296875 -11.15625 5.265625 -11.125 5.265625 -11.0625 L 5.015625 -9.03125 C 4.984375 -8.957031 5.007812 -8.921875 5.09375 -8.921875 L 7.09375 -8.921875 C 7.195312 -8.921875 7.269531 -8.890625 7.3125 -8.828125 C 7.363281 -8.773438 7.382812 -8.703125 7.375 -8.609375 L 7.03125 -5.90625 C 7 -5.695312 6.882812 -5.59375 6.6875 -5.59375 L 4.671875 -5.59375 C 4.609375 -5.59375 4.578125 -5.554688 4.578125 -5.484375 L 4.328125 -3.4375 C 4.296875 -3.363281 4.320312 -3.328125 4.40625 -3.328125 L 8.265625 -3.328125 C 8.359375 -3.328125 8.425781 -3.300781 8.46875 -3.25 C 8.519531 -3.195312 8.539062 -3.117188 8.53125 -3.015625 L 8.203125 -0.3125 C 8.179688 -0.21875 8.140625 -0.140625 8.078125 -0.078125 C 8.015625 -0.0234375 7.9375 0 7.84375 0 L 0.40625 0 C 0.332031 0 0.269531 -0.0234375 0.21875 -0.078125 C 0.164062 -0.140625 0.148438 -0.21875 0.171875 -0.3125 L 1.859375 -14.1875 C 1.878906 -14.28125 1.914062 -14.351562 1.96875 -14.40625 C 2.03125 -14.457031 2.101562 -14.484375 2.1875 -14.484375 L 9.625 -14.484375 C 9.71875 -14.484375 9.789062 -14.457031 9.84375 -14.40625 C 9.894531 -14.351562 9.910156 -14.28125 9.890625 -14.1875 Z M 9.5625 -11.46875 "/></g></g></g><g fill="#d32f23" fill-opacity="0.4196"><g transform="translate(49.216395, 25.804473)"><g><path d="M 0.40625 0 C 0.332031 0 0.269531 -0.0234375 0.21875 -0.078125 C 0.164062 -0.140625 0.148438 -0.21875 0.171875 -0.3125 L 1.859375 -14.1875 C 1.878906 -14.28125 1.914062 -14.351562 1.96875 -14.40625 C 2.03125 -14.457031 2.101562 -14.484375 2.1875 -14.484375 L 5.375 -14.484375 C 5.457031 -14.484375 5.523438 -14.457031 5.578125 -14.40625 C 5.628906 -14.351562 5.644531 -14.28125 5.625 -14.1875 L 4.328125 -3.4375 C 4.296875 -3.363281 4.320312 -3.328125 4.40625 -3.328125 L 8.34375 -3.328125 C 8.4375 -3.328125 8.507812 -3.300781 8.5625 -3.25 C 8.613281 -3.195312 8.628906 -3.117188 8.609375 -3.015625 L 8.28125 -0.3125 C 8.238281 -0.101562 8.117188 0 7.921875 0 Z M 0.40625 0 "/></g></g></g><g fill="#d32f23" fill-opacity="0.4196"><g transform="translate(58.175223, 25.804473)"><g><path d="M 9.5625 -11.46875 C 9.550781 -11.375 9.515625 -11.296875 9.453125 -11.234375 C 9.390625 -11.179688 9.3125 -11.15625 9.21875 -11.15625 L 5.359375 -11.15625 C 5.296875 -11.15625 5.265625 -11.125 5.265625 -11.0625 L 5.015625 -9.03125 C 4.984375 -8.957031 5.007812 -8.921875 5.09375 -8.921875 L 7.09375 -8.921875 C 7.195312 -8.921875 7.269531 -8.890625 7.3125 -8.828125 C 7.363281 -8.773438 7.382812 -8.703125 7.375 -8.609375 L 7.03125 -5.90625 C 7 -5.695312 6.882812 -5.59375 6.6875 -5.59375 L 4.671875 -5.59375 C 4.609375 -5.59375 4.578125 -5.554688 4.578125 -5.484375 L 4.328125 -3.4375 C 4.296875 -3.363281 4.320312 -3.328125 4.40625 -3.328125 L 8.265625 -3.328125 C 8.359375 -3.328125 8.425781 -3.300781 8.46875 -3.25 C 8.519531 -3.195312 8.539062 -3.117188 8.53125 -3.015625 L 8.203125 -0.3125 C 8.179688 -0.21875 8.140625 -0.140625 8.078125 -0.078125 C 8.015625 -0.0234375 7.9375 0 7.84375 0 L 0.40625 0 C 0.332031 0 0.269531 -0.0234375 0.21875 -0.078125 C 0.164062 -0.140625 0.148438 -0.21875 0.171875 -0.3125 L 1.859375 -14.1875 C 1.878906 -14.28125 1.914062 -14.351562 1.96875 -14.40625 C 2.03125 -14.457031 2.101562 -14.484375 2.1875 -14.484375 L 9.625 -14.484375 C 9.71875 -14.484375 9.789062 -14.457031 9.84375 -14.40625 C 9.894531 -14.351562 9.910156 -14.28125 9.890625 -14.1875 Z M 9.5625 -11.46875 "/></g></g></g><g fill="#d32f23" fill-opacity="0.4196"><g transform="translate(67.092667, 25.804473)"><g><path d="M 0.40625 0 C 0.332031 0 0.269531 -0.0234375 0.21875 -0.078125 C 0.164062 -0.140625 0.148438 -0.21875 0.171875 -0.3125 L 1.859375 -14.1875 C 1.878906 -14.28125 1.914062 -14.351562 1.96875 -14.40625 C 2.03125 -14.457031 2.101562 -14.484375 2.1875 -14.484375 L 5.375 -14.484375 C 5.457031 -14.484375 5.523438 -14.457031 5.578125 -14.40625 C 5.628906 -14.351562 5.644531 -14.28125 5.625 -14.1875 L 4.328125 -3.4375 C 4.296875 -3.363281 4.320312 -3.328125 4.40625 -3.328125 L 8.34375 -3.328125 C 8.4375 -3.328125 8.507812 -3.300781 8.5625 -3.25 C 8.613281 -3.195312 8.628906 -3.117188 8.609375 -3.015625 L 8.28125 -0.3125 C 8.238281 -0.101562 8.117188 0 7.921875 0 Z M 0.40625 0 "/></g></g></g><g fill="#d32f23" fill-opacity="0.4196"><g transform="translate(76.051495, 25.804473)"><g><path d="M 6.4375 0 C 6.25 0 6.160156 -0.0976562 6.171875 -0.296875 L 6.125 -1.859375 C 6.144531 -1.890625 6.140625 -1.914062 6.109375 -1.9375 C 6.078125 -1.957031 6.050781 -1.96875 6.03125 -1.96875 L 4.21875 -1.96875 C 4.15625 -1.96875 4.109375 -1.929688 4.078125 -1.859375 L 3.6875 -0.296875 C 3.644531 -0.0976562 3.523438 0 3.328125 0 L 0.1875 0 C -0.0195312 0 -0.0976562 -0.109375 -0.046875 -0.328125 L 4.515625 -14.21875 C 4.566406 -14.394531 4.691406 -14.484375 4.890625 -14.484375 L 8.546875 -14.484375 C 8.742188 -14.484375 8.847656 -14.394531 8.859375 -14.21875 L 10 -0.328125 L 10 -0.296875 C 10 -0.0976562 9.894531 0 9.6875 0 Z M 4.921875 -5.046875 C 4.898438 -4.984375 4.921875 -4.953125 4.984375 -4.953125 L 5.96875 -4.953125 C 6.007812 -4.953125 6.039062 -4.984375 6.0625 -5.046875 L 5.984375 -8.875 C 5.984375 -8.9375 5.960938 -8.960938 5.921875 -8.953125 C 5.890625 -8.941406 5.875 -8.914062 5.875 -8.875 Z M 4.921875 -5.046875 "/></g></g></g><g fill="#d32f23" fill-opacity="0.4196"><g transform="translate(86.70691, 25.804473)"><g><path d="M 7.6875 -14.1875 C 7.695312 -14.28125 7.734375 -14.351562 7.796875 -14.40625 C 7.859375 -14.457031 7.9375 -14.484375 8.03125 -14.484375 L 11.15625 -14.484375 C 11.25 -14.484375 11.320312 -14.457031 11.375 -14.40625 C 11.425781 -14.351562 11.441406 -14.28125 11.421875 -14.1875 L 9.703125 -0.3125 C 9.691406 -0.21875 9.65625 -0.140625 9.59375 -0.078125 C 9.539062 -0.0234375 9.46875 0 9.375 0 L 5.796875 0 C 5.628906 0 5.53125 -0.0859375 5.5 -0.265625 L 4.71875 -6.625 C 4.71875 -6.664062 4.703125 -6.6875 4.671875 -6.6875 C 4.648438 -6.6875 4.640625 -6.664062 4.640625 -6.625 L 3.890625 -0.3125 C 3.878906 -0.21875 3.84375 -0.140625 3.78125 -0.078125 C 3.71875 -0.0234375 3.644531 0 3.5625 0 L 0.40625 0 C 0.332031 0 0.269531 -0.0234375 0.21875 -0.078125 C 0.164062 -0.140625 0.148438 -0.21875 0.171875 -0.3125 L 1.859375 -14.1875 C 1.878906 -14.28125 1.914062 -14.351562 1.96875 -14.40625 C 2.03125 -14.457031 2.101562 -14.484375 2.1875 -14.484375 L 5.734375 -14.484375 C 5.898438 -14.484375 6 -14.394531 6.03125 -14.21875 L 6.828125 -7.828125 C 6.828125 -7.785156 6.84375 -7.769531 6.875 -7.78125 C 6.90625 -7.800781 6.925781 -7.820312 6.9375 -7.84375 Z M 7.6875 -14.1875 "/></g></g></g><g fill="#d32f23" fill-opacity="0.4196"><g transform="translate(97.30026, 25.804473)"><g><path d="M 4.375 0.171875 C 3.15625 0.171875 2.195312 -0.148438 1.5 -0.796875 C 0.800781 -1.441406 0.453125 -2.316406 0.453125 -3.421875 C 0.453125 -3.546875 0.46875 -3.757812 0.5 -4.0625 L 1.28125 -10.453125 C 1.4375 -11.734375 1.960938 -12.753906 2.859375 -13.515625 C 3.753906 -14.273438 4.863281 -14.65625 6.1875 -14.65625 C 7.382812 -14.65625 8.335938 -14.332031 9.046875 -13.6875 C 9.765625 -13.039062 10.125 -12.164062 10.125 -11.0625 C 10.125 -10.90625 10.109375 -10.6875 10.078125 -10.40625 L 10 -9.734375 C 9.957031 -9.523438 9.835938 -9.421875 9.640625 -9.421875 L 6.484375 -9.421875 C 6.378906 -9.421875 6.300781 -9.445312 6.25 -9.5 C 6.207031 -9.550781 6.191406 -9.628906 6.203125 -9.734375 L 6.3125 -10.453125 C 6.34375 -10.710938 6.304688 -10.921875 6.203125 -11.078125 C 6.109375 -11.242188 5.972656 -11.328125 5.796875 -11.328125 C 5.597656 -11.328125 5.429688 -11.242188 5.296875 -11.078125 C 5.160156 -10.921875 5.078125 -10.710938 5.046875 -10.453125 L 4.265625 -4.03125 C 4.234375 -3.769531 4.265625 -3.5625 4.359375 -3.40625 C 4.460938 -3.25 4.601562 -3.171875 4.78125 -3.171875 C 4.976562 -3.171875 5.140625 -3.25 5.265625 -3.40625 C 5.398438 -3.5625 5.476562 -3.769531 5.5 -4.03125 L 5.65625 -5.078125 C 5.65625 -5.140625 5.617188 -5.171875 5.546875 -5.171875 L 5.375 -5.171875 C 5.28125 -5.171875 5.207031 -5.195312 5.15625 -5.25 C 5.113281 -5.3125 5.097656 -5.390625 5.109375 -5.484375 L 5.40625 -7.859375 C 5.414062 -7.960938 5.453125 -8.039062 5.515625 -8.09375 C 5.578125 -8.144531 5.648438 -8.171875 5.734375 -8.171875 L 9.5 -8.171875 C 9.59375 -8.171875 9.664062 -8.144531 9.71875 -8.09375 C 9.769531 -8.039062 9.785156 -7.960938 9.765625 -7.859375 L 9.296875 -4.0625 C 9.140625 -2.769531 8.609375 -1.738281 7.703125 -0.96875 C 6.804688 -0.207031 5.695312 0.171875 4.375 0.171875 Z M 4.375 0.171875 "/></g></g></g><g fill="#75c7fb" fill-opacity="1"><g transform="translate(3.206976, 25.250485)"><g><path d="M 8.515625 -14.265625 C 8.597656 -14.410156 8.71875 -14.484375 8.875 -14.484375 L 12.03125 -14.484375 C 12.113281 -14.484375 12.175781 -14.457031 12.21875 -14.40625 C 12.269531 -14.351562 12.289062 -14.28125 12.28125 -14.1875 L 10.578125 -0.3125 C 10.566406 -0.21875 10.53125 -0.140625 10.46875 -0.078125 C 10.40625 -0.0234375 10.332031 0 10.25 0 L 7.0625 0 C 6.976562 0 6.910156 -0.0234375 6.859375 -0.078125 C 6.816406 -0.140625 6.800781 -0.21875 6.8125 -0.3125 L 7.84375 -8.78125 C 7.851562 -8.832031 7.84375 -8.859375 7.8125 -8.859375 C 7.78125 -8.867188 7.75 -8.851562 7.71875 -8.8125 L 6.3125 -6.796875 L 6.0625 -6.421875 L 6.046875 -6.421875 L 4.984375 -8.8125 C 4.972656 -8.851562 4.953125 -8.867188 4.921875 -8.859375 C 4.898438 -8.859375 4.878906 -8.832031 4.859375 -8.78125 L 3.828125 -0.3125 C 3.816406 -0.21875 3.78125 -0.140625 3.71875 -0.078125 C 3.664062 -0.0234375 3.59375 0 3.5 0 L 0.328125 0 C 0.234375 0 0.160156 -0.0234375 0.109375 -0.078125 C 0.0664062 -0.140625 0.0507812 -0.21875 0.0625 -0.3125 L 1.765625 -14.1875 C 1.773438 -14.28125 1.8125 -14.351562 1.875 -14.40625 C 1.9375 -14.457031 2.007812 -14.484375 2.09375 -14.484375 L 5.234375 -14.484375 C 5.398438 -14.484375 5.507812 -14.410156 5.5625 -14.265625 L 6.671875 -11.578125 C 6.691406 -11.515625 6.734375 -11.515625 6.796875 -11.578125 Z M 8.515625 -14.265625 "/></g></g></g><g fill="#75c7fb" fill-opacity="1"><g transform="translate(14.565855, 25.250485)"><g><path d="M 3.109375 -0.046875 C 3.003906 -0.046875 2.925781 -0.0703125 2.875 -0.125 C 2.832031 -0.175781 2.820312 -0.253906 2.84375 -0.359375 L 3.421875 -5.140625 C 3.429688 -5.160156 3.429688 -5.203125 3.421875 -5.265625 L 1.703125 -14.140625 L 1.703125 -14.21875 C 1.703125 -14.394531 1.796875 -14.484375 1.984375 -14.484375 L 5.328125 -14.484375 C 5.515625 -14.484375 5.613281 -14.394531 5.625 -14.21875 L 5.875 -10.0625 C 5.875 -10.019531 5.890625 -10 5.921875 -10 C 5.960938 -10 5.988281 -10.019531 6 -10.0625 L 7.265625 -14.21875 C 7.316406 -14.394531 7.441406 -14.484375 7.640625 -14.484375 L 10.96875 -14.484375 C 11.082031 -14.484375 11.15625 -14.453125 11.1875 -14.390625 C 11.21875 -14.335938 11.210938 -14.253906 11.171875 -14.140625 L 7.21875 -5.265625 L 7.203125 -5.140625 L 6.609375 -0.359375 C 6.585938 -0.253906 6.550781 -0.175781 6.5 -0.125 C 6.445312 -0.0703125 6.367188 -0.046875 6.265625 -0.046875 Z M 3.109375 -0.046875 "/></g></g></g><g fill="#75c7fb" fill-opacity="1"><g transform="translate(24.766093, 25.250485)"><g/></g></g><g fill="#75c7fb" fill-opacity="1"><g transform="translate(28.779984, 25.250485)"><g><path d="M 0.78125 -4.25 C 0.6875 -4.25 0.613281 -4.273438 0.5625 -4.328125 C 0.519531 -4.378906 0.503906 -4.453125 0.515625 -4.546875 L 0.84375 -7.25 C 0.863281 -7.34375 0.90625 -7.414062 0.96875 -7.46875 C 1.03125 -7.53125 1.101562 -7.5625 1.1875 -7.5625 L 6.75 -7.5625 C 6.84375 -7.5625 6.910156 -7.53125 6.953125 -7.46875 C 7.003906 -7.414062 7.023438 -7.34375 7.015625 -7.25 L 6.6875 -4.546875 C 6.675781 -4.453125 6.640625 -4.378906 6.578125 -4.328125 C 6.515625 -4.273438 6.429688 -4.25 6.328125 -4.25 Z M 0.78125 -4.25 "/></g></g></g><g fill="#75c7fb" fill-opacity="1"><g transform="translate(35.669795, 25.250485)"><g/></g></g><g fill="#75c7fb" fill-opacity="1"><g transform="translate(39.683686, 25.250485)"><g><path d="M 9.5625 -11.46875 C 9.550781 -11.375 9.515625 -11.296875 9.453125 -11.234375 C 9.390625 -11.179688 9.3125 -11.15625 9.21875 -11.15625 L 5.359375 -11.15625 C 5.296875 -11.15625 5.265625 -11.125 5.265625 -11.0625 L 5.015625 -9.03125 C 4.984375 -8.957031 5.007812 -8.921875 5.09375 -8.921875 L 7.09375 -8.921875 C 7.195312 -8.921875 7.269531 -8.890625 7.3125 -8.828125 C 7.363281 -8.773438 7.382812 -8.703125 7.375 -8.609375 L 7.03125 -5.90625 C 7 -5.695312 6.882812 -5.59375 6.6875 -5.59375 L 4.671875 -5.59375 C 4.609375 -5.59375 4.578125 -5.554688 4.578125 -5.484375 L 4.328125 -3.4375 C 4.296875 -3.363281 4.320312 -3.328125 4.40625 -3.328125 L 8.265625 -3.328125 C 8.359375 -3.328125 8.425781 -3.300781 8.46875 -3.25 C 8.519531 -3.195312 8.539062 -3.117188 8.53125 -3.015625 L 8.203125 -0.3125 C 8.179688 -0.21875 8.140625 -0.140625 8.078125 -0.078125 C 8.015625 -0.0234375 7.9375 0 7.84375 0 L 0.40625 0 C 0.332031 0 0.269531 -0.0234375 0.21875 -0.078125 C 0.164062 -0.140625 0.148438 -0.21875 0.171875 -0.3125 L 1.859375 -14.1875 C 1.878906 -14.28125 1.914062 -14.351562 1.96875 -14.40625 C 2.03125 -14.457031 2.101562 -14.484375 2.1875 -14.484375 L 9.625 -14.484375 C 9.71875 -14.484375 9.789062 -14.457031 9.84375 -14.40625 C 9.894531 -14.351562 9.910156 -14.28125 9.890625 -14.1875 Z M 9.5625 -11.46875 "/></g></g></g><g fill="#75c7fb" fill-opacity="1"><g transform="translate(48.601129, 25.250485)"><g><path d="M 0.40625 0 C 0.332031 0 0.269531 -0.0234375 0.21875 -0.078125 C 0.164062 -0.140625 0.148438 -0.21875 0.171875 -0.3125 L 1.859375 -14.1875 C 1.878906 -14.28125 1.914062 -14.351562 1.96875 -14.40625 C 2.03125 -14.457031 2.101562 -14.484375 2.1875 -14.484375 L 5.375 -14.484375 C 5.457031 -14.484375 5.523438 -14.457031 5.578125 -14.40625 C 5.628906 -14.351562 5.644531 -14.28125 5.625 -14.1875 L 4.328125 -3.4375 C 4.296875 -3.363281 4.320312 -3.328125 4.40625 -3.328125 L 8.34375 -3.328125 C 8.4375 -3.328125 8.507812 -3.300781 8.5625 -3.25 C 8.613281 -3.195312 8.628906 -3.117188 8.609375 -3.015625 L 8.28125 -0.3125 C 8.238281 -0.101562 8.117188 0 7.921875 0 Z M 0.40625 0 "/></g></g></g><g fill="#75c7fb" fill-opacity="1"><g transform="translate(57.559958, 25.250485)"><g><path d="M 9.5625 -11.46875 C 9.550781 -11.375 9.515625 -11.296875 9.453125 -11.234375 C 9.390625 -11.179688 9.3125 -11.15625 9.21875 -11.15625 L 5.359375 -11.15625 C 5.296875 -11.15625 5.265625 -11.125 5.265625 -11.0625 L 5.015625 -9.03125 C 4.984375 -8.957031 5.007812 -8.921875 5.09375 -8.921875 L 7.09375 -8.921875 C 7.195312 -8.921875 7.269531 -8.890625 7.3125 -8.828125 C 7.363281 -8.773438 7.382812 -8.703125 7.375 -8.609375 L 7.03125 -5.90625 C 7 -5.695312 6.882812 -5.59375 6.6875 -5.59375 L 4.671875 -5.59375 C 4.609375 -5.59375 4.578125 -5.554688 4.578125 -5.484375 L 4.328125 -3.4375 C 4.296875 -3.363281 4.320312 -3.328125 4.40625 -3.328125 L 8.265625 -3.328125 C 8.359375 -3.328125 8.425781 -3.300781 8.46875 -3.25 C 8.519531 -3.195312 8.539062 -3.117188 8.53125 -3.015625 L 8.203125 -0.3125 C 8.179688 -0.21875 8.140625 -0.140625 8.078125 -0.078125 C 8.015625 -0.0234375 7.9375 0 7.84375 0 L 0.40625 0 C 0.332031 0 0.269531 -0.0234375 0.21875 -0.078125 C 0.164062 -0.140625 0.148438 -0.21875 0.171875 -0.3125 L 1.859375 -14.1875 C 1.878906 -14.28125 1.914062 -14.351562 1.96875 -14.40625 C 2.03125 -14.457031 2.101562 -14.484375 2.1875 -14.484375 L 9.625 -14.484375 C 9.71875 -14.484375 9.789062 -14.457031 9.84375 -14.40625 C 9.894531 -14.351562 9.910156 -14.28125 9.890625 -14.1875 Z M 9.5625 -11.46875 "/></g></g></g><g fill="#75c7fb" fill-opacity="1"><g transform="translate(66.477401, 25.250485)"><g><path d="M 0.40625 0 C 0.332031 0 0.269531 -0.0234375 0.21875 -0.078125 C 0.164062 -0.140625 0.148438 -0.21875 0.171875 -0.3125 L 1.859375 -14.1875 C 1.878906 -14.28125 1.914062 -14.351562 1.96875 -14.40625 C 2.03125 -14.457031 2.101562 -14.484375 2.1875 -14.484375 L 5.375 -14.484375 C 5.457031 -14.484375 5.523438 -14.457031 5.578125 -14.40625 C 5.628906 -14.351562 5.644531 -14.28125 5.625 -14.1875 L 4.328125 -3.4375 C 4.296875 -3.363281 4.320312 -3.328125 4.40625 -3.328125 L 8.34375 -3.328125 C 8.4375 -3.328125 8.507812 -3.300781 8.5625 -3.25 C 8.613281 -3.195312 8.628906 -3.117188 8.609375 -3.015625 L 8.28125 -0.3125 C 8.238281 -0.101562 8.117188 0 7.921875 0 Z M 0.40625 0 "/></g></g></g><g fill="#75c7fb" fill-opacity="1"><g transform="translate(75.436229, 25.250485)"><g><path d="M 6.4375 0 C 6.25 0 6.160156 -0.0976562 6.171875 -0.296875 L 6.125 -1.859375 C 6.144531 -1.890625 6.140625 -1.914062 6.109375 -1.9375 C 6.078125 -1.957031 6.050781 -1.96875 6.03125 -1.96875 L 4.21875 -1.96875 C 4.15625 -1.96875 4.109375 -1.929688 4.078125 -1.859375 L 3.6875 -0.296875 C 3.644531 -0.0976562 3.523438 0 3.328125 0 L 0.1875 0 C -0.0195312 0 -0.0976562 -0.109375 -0.046875 -0.328125 L 4.515625 -14.21875 C 4.566406 -14.394531 4.691406 -14.484375 4.890625 -14.484375 L 8.546875 -14.484375 C 8.742188 -14.484375 8.847656 -14.394531 8.859375 -14.21875 L 10 -0.328125 L 10 -0.296875 C 10 -0.0976562 9.894531 0 9.6875 0 Z M 4.921875 -5.046875 C 4.898438 -4.984375 4.921875 -4.953125 4.984375 -4.953125 L 5.96875 -4.953125 C 6.007812 -4.953125 6.039062 -4.984375 6.0625 -5.046875 L 5.984375 -8.875 C 5.984375 -8.9375 5.960938 -8.960938 5.921875 -8.953125 C 5.890625 -8.941406 5.875 -8.914062 5.875 -8.875 Z M 4.921875 -5.046875 "/></g></g></g><g fill="#75c7fb" fill-opacity="1"><g transform="translate(86.091644, 25.250485)"><g><path d="M 7.6875 -14.1875 C 7.695312 -14.28125 7.734375 -14.351562 7.796875 -14.40625 C 7.859375 -14.457031 7.9375 -14.484375 8.03125 -14.484375 L 11.15625 -14.484375 C 11.25 -14.484375 11.320312 -14.457031 11.375 -14.40625 C 11.425781 -14.351562 11.441406 -14.28125 11.421875 -14.1875 L 9.703125 -0.3125 C 9.691406 -0.21875 9.65625 -0.140625 9.59375 -0.078125 C 9.539062 -0.0234375 9.46875 0 9.375 0 L 5.796875 0 C 5.628906 0 5.53125 -0.0859375 5.5 -0.265625 L 4.71875 -6.625 C 4.71875 -6.664062 4.703125 -6.6875 4.671875 -6.6875 C 4.648438 -6.6875 4.640625 -6.664062 4.640625 -6.625 L 3.890625 -0.3125 C 3.878906 -0.21875 3.84375 -0.140625 3.78125 -0.078125 C 3.71875 -0.0234375 3.644531 0 3.5625 0 L 0.40625 0 C 0.332031 0 0.269531 -0.0234375 0.21875 -0.078125 C 0.164062 -0.140625 0.148438 -0.21875 0.171875 -0.3125 L 1.859375 -14.1875 C 1.878906 -14.28125 1.914062 -14.351562 1.96875 -14.40625 C 2.03125 -14.457031 2.101562 -14.484375 2.1875 -14.484375 L 5.734375 -14.484375 C 5.898438 -14.484375 6 -14.394531 6.03125 -14.21875 L 6.828125 -7.828125 C 6.828125 -7.785156 6.84375 -7.769531 6.875 -7.78125 C 6.90625 -7.800781 6.925781 -7.820312 6.9375 -7.84375 Z M 7.6875 -14.1875 "/></g></g></g><g fill="#75c7fb" fill-opacity="1"><g transform="translate(96.684994, 25.250485)"><g><path d="M 4.375 0.171875 C 3.15625 0.171875 2.195312 -0.148438 1.5 -0.796875 C 0.800781 -1.441406 0.453125 -2.316406 0.453125 -3.421875 C 0.453125 -3.546875 0.46875 -3.757812 0.5 -4.0625 L 1.28125 -10.453125 C 1.4375 -11.734375 1.960938 -12.753906 2.859375 -13.515625 C 3.753906 -14.273438 4.863281 -14.65625 6.1875 -14.65625 C 7.382812 -14.65625 8.335938 -14.332031 9.046875 -13.6875 C 9.765625 -13.039062 10.125 -12.164062 10.125 -11.0625 C 10.125 -10.90625 10.109375 -10.6875 10.078125 -10.40625 L 10 -9.734375 C 9.957031 -9.523438 9.835938 -9.421875 9.640625 -9.421875 L 6.484375 -9.421875 C 6.378906 -9.421875 6.300781 -9.445312 6.25 -9.5 C 6.207031 -9.550781 6.191406 -9.628906 6.203125 -9.734375 L 6.3125 -10.453125 C 6.34375 -10.710938 6.304688 -10.921875 6.203125 -11.078125 C 6.109375 -11.242188 5.972656 -11.328125 5.796875 -11.328125 C 5.597656 -11.328125 5.429688 -11.242188 5.296875 -11.078125 C 5.160156 -10.921875 5.078125 -10.710938 5.046875 -10.453125 L 4.265625 -4.03125 C 4.234375 -3.769531 4.265625 -3.5625 4.359375 -3.40625 C 4.460938 -3.25 4.601562 -3.171875 4.78125 -3.171875 C 4.976562 -3.171875 5.140625 -3.25 5.265625 -3.40625 C 5.398438 -3.5625 5.476562 -3.769531 5.5 -4.03125 L 5.65625 -5.078125 C 5.65625 -5.140625 5.617188 -5.171875 5.546875 -5.171875 L 5.375 -5.171875 C 5.28125 -5.171875 5.207031 -5.195312 5.15625 -5.25 C 5.113281 -5.3125 5.097656 -5.390625 5.109375 -5.484375 L 5.40625 -7.859375 C 5.414062 -7.960938 5.453125 -8.039062 5.515625 -8.09375 C 5.578125 -8.144531 5.648438 -8.171875 5.734375 -8.171875 L 9.5 -8.171875 C 9.59375 -8.171875 9.664062 -8.144531 9.71875 -8.09375 C 9.769531 -8.039062 9.785156 -7.960938 9.765625 -7.859375 L 9.296875 -4.0625 C 9.140625 -2.769531 8.609375 -1.738281 7.703125 -0.96875 C 6.804688 -0.207031 5.695312 0.171875 4.375 0.171875 Z M 4.375 0.171875 "/></g></g></g></svg>